<svg xmlns="http://www.w3.org/2000/svg" viewBox="0 0 994 258"><path fill="#F3F3F3" d="m884.769 196.955 38.743-54.592-38.743-54.593h24.875l29.277 41.825 29.058-41.825h25.095l-38.743 54.593 38.743 54.592h-25.095l-29.058-41.825-29.277 41.825h-24.875ZM828.704 199.601c-10.713 0-20.252-2.348-28.617-7.044-8.218-4.843-14.675-11.521-19.372-20.032-4.696-8.512-7.044-18.418-7.044-29.718 0-11.447 2.275-21.499 6.824-30.158 4.696-8.658 11.154-15.41 19.372-20.252 8.365-4.843 18.051-7.264 29.057-7.264 10.713 0 20.032 2.421 27.957 7.264 7.924 4.696 14.088 11.007 18.491 18.931 4.402 7.925 6.604 16.657 6.604 26.196a59.02 59.02 0 0 1-.22 4.843 78 78 0 0 1-.221 5.503h-84.97c.734 10.566 4.182 18.638 10.346 24.214 6.31 5.43 13.575 8.145 21.793 8.145 6.604 0 12.107-1.467 16.51-4.402 4.549-3.082 7.925-7.191 10.126-12.328h23.334c-2.935 10.273-8.806 18.858-17.611 25.756-8.658 6.897-19.445 10.346-32.359 10.346Zm0-95.317c-7.778 0-14.675 2.348-20.692 7.044-6.017 4.55-9.686 11.447-11.007 20.693h61.637c-.44-8.512-3.449-15.263-9.026-20.252-5.576-4.99-12.547-7.485-20.912-7.485ZM715.735 196.957v-89.594h-15.629V87.772h15.629v-15.85c0-11.887 2.935-20.398 8.806-25.535 6.016-5.283 14.455-7.925 25.315-7.925h11.446v19.812h-7.924c-5.137 0-8.806 1.1-11.007 3.302-2.201 2.055-3.302 5.577-3.302 10.566v15.63h25.095v19.591h-25.095v89.594h-23.334ZM672.169 67.08c-4.403 0-8.072-1.321-11.007-3.963-2.788-2.788-4.182-6.237-4.182-10.346 0-4.11 1.394-7.485 4.182-10.126 2.935-2.788 6.604-4.183 11.007-4.183s7.998 1.395 10.786 4.183c2.935 2.641 4.403 6.017 4.403 10.126 0 4.109-1.468 7.558-4.403 10.346-2.788 2.642-6.383 3.962-10.786 3.962Zm-11.667 129.877V87.772h23.334v109.185h-23.334ZM620.153 196.957c-10.713 0-19.225-2.568-25.536-7.704-6.31-5.283-9.465-14.602-9.465-27.957v-53.932h-18.711V87.772h18.711l2.862-27.736h20.472v27.736h30.818v19.592h-30.818v53.932c0 6.017 1.247 10.199 3.742 12.547 2.641 2.202 7.117 3.302 13.428 3.302h12.547v19.812h-18.05ZM495.143 196.959V87.774h20.912l1.981 20.693c3.816-7.191 9.099-12.841 15.85-16.95 6.897-4.256 15.189-6.384 24.874-6.384v24.434h-6.383c-6.458 0-12.254 1.101-17.391 3.302-4.989 2.055-9.025 5.65-12.107 10.787-2.935 4.989-4.403 11.96-4.403 20.912v52.391h-23.333ZM413.563 199.601c-9.245 0-16.876-1.541-22.893-4.623-6.017-3.082-10.493-7.118-13.428-12.107-2.935-5.137-4.403-10.713-4.403-16.73 0-10.566 4.109-18.931 12.327-25.095 8.219-6.164 19.959-9.246 35.221-9.246h28.617v-1.981c0-8.511-2.348-14.895-7.044-19.151-4.549-4.256-10.493-6.384-17.83-6.384-6.458 0-12.108 1.614-16.95 4.843-4.697 3.082-7.558 7.705-8.586 13.868h-23.333c.733-7.924 3.375-14.675 7.924-20.252 4.696-5.723 10.567-10.052 17.611-12.988 7.191-3.081 15.042-4.622 23.554-4.622 15.262 0 27.076 4.035 35.441 12.107 8.365 7.925 12.547 18.784 12.547 32.579v67.14h-20.252l-1.981-18.711c-3.082 6.017-7.558 11.08-13.428 15.189-5.87 4.109-13.575 6.164-23.114 6.164Zm4.623-18.931c6.311 0 11.594-1.468 15.85-4.403 4.402-3.082 7.778-7.118 10.126-12.107 2.494-4.99 4.035-10.493 4.622-16.51h-25.975c-9.246 0-15.85 1.614-19.812 4.843-3.816 3.228-5.723 7.264-5.723 12.107 0 4.99 1.834 8.952 5.503 11.887 3.816 2.788 8.952 4.183 15.409 4.183Z"/><path fill="#DD517E" d="m157.852 257.138 165.684-97.85L164.668 0 .746 164.354l12.133 7.166 144.973-145.4v231.018Zm13.631-231.017 7.414 7.435-7.414 4.379V26.12Zm0 13.136 8.244-4.869 11.424 11.459-19.668 11.616V39.257Zm0 20.984 21.411-12.646 10.513 10.544-31.924 18.852v-16.75Zm0 20.981 34.579-20.42 9.6 9.628-44.179 26.09V81.222Zm0 20.983 47.746-28.197 8.688 8.713-56.434 33.328v-13.844Zm0 20.983 60.913-35.974 7.775 7.797-68.688 40.566v-12.389Zm0 20.985 74.082-43.752 6.862 6.883-80.944 47.802v-10.933Zm0 20.981 87.25-51.526 5.949 5.967-93.199 55.04v-9.481Zm0 20.983L271.9 126.834l5.036 5.052-105.453 62.277v-8.026Zm0 20.984 113.585-67.08 4.124 4.136-117.709 69.515v-6.571Zm0 20.983 126.752-74.856 3.212 3.22-129.964 76.753v-5.117Z"/></svg>